<?xml version="1.0" encoding="UTF-8"?><svg id="Ebene_1" xmlns="http://www.w3.org/2000/svg" viewBox="0 0 222.96065 240.49563"><defs><style>.cls-1{stroke-miterlimit:5;}.cls-1,.cls-2,.cls-3{fill:none;stroke:#9c2532;stroke-width:6px;}.cls-2{stroke-linecap:round;}.cls-2,.cls-3{stroke-miterlimit:10;}.cls-4{fill:#9c2532;stroke-width:0px;}</style></defs><path class="cls-2" d="M111.48033,49.76798c-34.70785,0-62.84418,28.13628-62.84418,62.84418,0,18.40932,6.94589,32.87789,20.53032,46.46233,13.58444,13.58444,18.00502,31.12607,18.00502,48.27891h48.61768c0-17.15284,4.42058-34.69447,18.00502-48.27891s20.53032-28.05301,20.53032-46.46233c0-34.7079-28.13633-62.84418-62.84418-62.84418Z"/><line class="cls-3" x1="87.17149" y1="215.87604" x2="135.78916" y2="215.87604"/><line class="cls-3" x1="87.17149" y1="223.79052" x2="135.78916" y2="223.79052"/><path class="cls-3" d="M111.48033,0v32.18416"/><path class="cls-3" d="M55.74016,14.93553l16.09208,27.8723"/><path class="cls-3" d="M14.93553,55.74016l27.8723,16.09208"/><path class="cls-3" d="M0,111.48033h32.18416"/><path class="cls-3" d="M14.93553,167.22049l27.8723-16.09208"/><path class="cls-3" d="M167.22049,14.93553l-16.09208,27.8723"/><path class="cls-3" d="M208.02512,55.74016l-27.8723,16.09208"/><path class="cls-3" d="M222.96065,111.48033h-32.18416"/><path class="cls-3" d="M208.02512,167.22049l-27.8723-16.09208"/><path class="cls-4" d="M99.13831,229.53227c.73005,6.17293,5.97272,10.96336,12.34202,10.96336s11.61196-4.79043,12.34202-10.96336h-24.68403Z"/><polyline class="cls-1" points="102.71582 200.34943 102.71582 163.4023 82.5246 127.82386 140.43605 127.82386 120.24483 163.4023 120.24483 200.34943"/></svg>