<?xml version="1.0" encoding="UTF-8"?>
<svg id="Ebene_1" data-name="Ebene 1" xmlns="http://www.w3.org/2000/svg" viewBox="0 0 1592.03 1795.89">
  <defs>
    <style>
      .cls-1 {
        fill: #9d2632;
        stroke-width: 0px;
      }
    </style>
  </defs>
  <path class="cls-1" d="M0,572.11v1223.78h1592.03V572.11H0ZM710.8,610.11v488.68H38v-488.68h672.8ZM38,1757.89v-488.68h672.8v488.68H38ZM1554.03,1757.89h-672.8v-488.68h672.36v-170.42h-672.36v-488.68h672.8v1147.78Z"/>
  <path class="cls-1" d="M377.14,610.11h851.48c118.74-45.23,203.12-160.15,203.12-294.78C1431.74,141.18,1290.56,0,1116.41,0c-160.38,0-294.34,119.75-314.33,274.72C782.15,119.75,649.74,0,489.36,0,315.21,0,174.03,141.18,174.03,315.33c0,134.63,84.38,249.56,203.12,294.78ZM883.08,287.77c6.53-55.49,33.2-106.83,75.38-144.92,43.45-39.24,99.54-60.85,157.94-60.85,62.32,0,120.92,24.27,164.99,68.34,44.07,44.07,68.34,102.66,68.34,164.99,0,48.24-14.58,94.52-42.15,133.82-13.32,18.99-29.35,35.86-47.64,50.16-14.73,11.51-30.69,21.17-47.6,28.81h-329.27v-240.34ZM324.37,150.34c44.07-44.07,102.66-68.34,164.99-68.34,58.19,0,113.92,21.54,156.93,60.65,41.75,37.97,68.2,89.31,74.77,144.93l-1.18,240.53h-326.46c-16.91-7.64-32.87-17.3-47.6-28.81-18.29-14.3-34.31-31.17-47.64-50.16-27.58-39.3-42.15-85.57-42.15-133.82,0-62.32,24.27-120.92,68.34-164.99Z"/>
</svg>