<?xml version="1.0" encoding="UTF-8"?><svg id="Ebene_1" xmlns="http://www.w3.org/2000/svg" viewBox="0 0 170.26839 273.77011"><defs><style>.cls-1{stroke-miterlimit:5;}.cls-1,.cls-2{fill:none;stroke:#9c2532;stroke-width:6px;}.cls-2{stroke-miterlimit:10;}</style></defs><path class="cls-2" d="M92.61389,40.3637c0-17.92168,10.29049-26.99859,25.27926-34.53667-4.94736-1.82676-10.29494-2.82702-15.87699-2.82702-25.31768,0-45.84183,20.52407-45.84183,45.84179,0,13.65045,8.3834,19.93875,10.84422,35.17383-6.64585-9.35365-17.56-15.46261-29.90793-15.46261-9.33798,0-17.8556,3.49585-24.33,9.24269,3.05043-.99693,6.30485-1.54311,9.68834-1.54311,17.21607,0,31.17239,13.95636,31.17239,31.17239,0,15.97847-12.02447,29.14096-27.51664,30.95196-1.40099.12954-2.81778.20479-4.2525.20539.31687,14.38805,5.05579,27.68428,12.90721,38.58974,26.07779-9.39426,46.81355-31.70262,52.88441-60.8277,1.14413-5.48918,1.70802-10.96388,1.74485-16.36317,7.39977,13.75455,10.18921,30.08633,6.75269,46.57304-4.81163,23.08388-20.6783,41.02862-40.91495,49.46417,10.33399,6.21103,22.43378,9.78419,35.36893,9.78419,37.9766,0,68.76267-30.78611,68.76267-68.76271,0-56.0922-66.76413-59.84026-66.76413-96.67619Z"/><rect class="cls-2" x="17.95238" y="227.78648" width="150.0924" height="16.98329" transform="translate(-75.20338 46.0567) rotate(-20)"/><polyline class="cls-1" points="92.99858 245.31475 160.61462 269.92498 166.42325 253.9659 117.8265 236.27813"/><polyline class="cls-1" points="92.99858 227.2415 25.38254 202.63128 19.57391 218.59035 68.17067 236.27813"/></svg>